<svg xmlns="http://www.w3.org/2000/svg" viewBox="0 0 193.17 27.14"><defs><style>.cls-1,.cls-2{fill:#fff;}.cls-2{fill-rule:evenodd;}</style></defs><title>Recurso 1</title><g id="Capa_2" data-name="Capa 2"><g id="Layer_1" data-name="Layer 1"><polygon class="cls-1" points="44.1 18.52 48.15 18.52 48.55 11.76 52.67 18.52 54.85 18.52 59.75 11.76 59.38 18.52 63.42 18.52 64.25 4.34 60.36 4.34 54.08 13.1 48.77 4.34 44.91 4.34 44.1 18.52"/><polygon class="cls-1" points="64.36 18.52 68.72 18.52 74.41 8.61 76.75 13.85 73.3 13.85 72.13 16.39 77.87 16.39 78.78 18.52 83.2 18.52 76.9 4.34 72.64 4.34 64.36 18.52"/><path class="cls-1" d="M97.72,13.56c2.54,0,3.86-1.15,3.94-2.65l.24-4.33a2.12,2.12,0,0,0-2.12-2.23H85.86l-.81,14.17h4.06l.38-5h2.43l5.36,5h5.45Zm-.18-3.78a.48.48,0,0,1-.48.46H89.72l.11-2.61h7.33a.49.49,0,0,1,.49.52Z"/><path class="cls-1" d="M121,4.35l-.17,3.21H108.54l-.39.19-.09,1.8.32.25h10a2.28,2.28,0,0,1,2.28,2.39l-.2,4a2.5,2.5,0,0,1-2.5,2.37H103.54l.17-3.24,12.26,0,.41-.28.09-1.68-.28-.25h-10A2.22,2.22,0,0,1,104,10.72l.21-4a2.46,2.46,0,0,1,2.47-2.33Z"/><polygon class="cls-1" points="136.04 4.34 135.73 9.78 126.99 9.78 127.3 4.34 123.24 4.34 122.42 18.52 126.49 18.52 126.8 13.03 135.54 13.03 135.23 18.52 139.29 18.52 140.1 4.34 136.04 4.34"/><polygon class="cls-1" points="165.23 15.27 165.86 4.34 161.85 4.34 161.09 18.47 165.05 18.47 175.92 18.47 176.07 15.27 165.23 15.27"/><polygon class="cls-1" points="182.33 15.27 182.96 4.34 178.94 4.34 178.18 18.47 182.15 18.47 193.02 18.47 193.17 15.27 182.33 15.27"/><polygon class="cls-1" points="140.26 18.5 144.63 18.5 150.32 8.59 152.66 13.82 149.2 13.82 148.03 16.36 153.77 16.36 154.69 18.5 159.11 18.5 152.81 4.32 148.54 4.32 140.26 18.5"/><path class="cls-2" d="M9.88,0H27.57a1.38,1.38,0,0,1,1.31,1.84l-8.39,24a1.9,1.9,0,0,1-3.6,0l-8.32-24A1.38,1.38,0,0,1,9.88,0"/><path class="cls-1" d="M26.27,17.75,30.54,4.88a.33.33,0,0,1,.64,0l6.31,19.19a.54.54,0,0,1-.55.77l-7.7,0a.66.66,0,0,1-.62-.44L26.28,18.2a.63.63,0,0,1,0-.45"/><path class="cls-1" d="M10.89,17.15,6.75,4.71a.33.33,0,0,0-.62,0L0,23.27A.51.51,0,0,0,.57,24L8,24a.66.66,0,0,0,.61-.42l2.26-6a.73.73,0,0,0,0-.44"/></g></g></svg>